<?xml version="1.0" encoding="utf-8"?><svg xmlns="http://www.w3.org/2000/svg" xmlns:xlink="http://www.w3.org/1999/xlink"><symbol viewBox="0 0 512 512" id="close" xmlns="http://www.w3.org/2000/svg"><style/><path d="M268.064 256.75l138.593-138.593a8 8 0 10-11.314-11.313L256.75 245.436 118.157 106.843a8 8 0 00-11.313 0 7.998 7.998 0 000 11.313L245.436 256.75 106.843 395.343a7.999 7.999 0 000 11.314c1.562 1.562 3.609 2.343 5.657 2.343s4.095-.781 5.657-2.343L256.75 268.064l138.593 138.593c1.563 1.562 3.609 2.343 5.657 2.343s4.095-.781 5.657-2.343a8 8 0 000-11.314L268.064 256.75z" id="across_copy"/></symbol><symbol viewBox="0 0 20 20" id="ico-close" xmlns="http://www.w3.org/2000/svg"><path d="M20 2.357L17.643 0 10 7.643 2.357 0 0 2.357 7.643 10 0 17.643 2.357 20 10 12.357 17.643 20 20 17.643 12.357 10 20 2.357z"/></symbol></svg>